<?xml version="1.0" standalone="no"?>
<!DOCTYPE svg PUBLIC "-//W3C//DTD SVG 20010904//EN"
 "http://www.w3.org/TR/2001/REC-SVG-20010904/DTD/svg10.dtd">
<svg version="1.0" xmlns="http://www.w3.org/2000/svg"
 width="500.000000pt" height="500.000000pt" viewBox="0 0 500.000000 500.000000"
 preserveAspectRatio="xMidYMid meet">

<g transform="translate(0.000000,500.000000) scale(0.100000,-0.100000)"
fill="#000000" stroke="none">
<path d="M2217 3833 c-4 -3 -7 -17 -7 -30 l0 -23 291 0 290 0 -3 28 -3 27
-281 3 c-154 1 -283 -1 -287 -5z"/>
<path d="M2190 3730 c0 -20 7 -20 310 -20 303 0 310 0 310 20 0 20 -7 20 -310
20 -303 0 -310 0 -310 -20z"/>
<path d="M2173 3664 c-3 -9 -2 -22 3 -29 5 -7 39 -50 77 -96 37 -46 85 -118
107 -160 53 -102 106 -264 121 -371 7 -48 16 -85 20 -83 3 3 9 34 13 69 20
197 130 441 268 591 84 93 94 90 -280 93 -292 2 -323 1 -329 -14z"/>
<path d="M1930 3608 c0 -14 -114 -440 -126 -471 -4 -12 2 -18 23 -22 208 -44
375 -127 506 -254 64 -61 137 -150 137 -165 0 -4 -26 20 -57 54 -132 143 -319
236 -526 261 -51 6 -108 14 -127 18 l-36 6 44 183 c42 174 45 182 68 182 28 0
44 28 23 41 -15 9 -88 23 -94 17 -5 -4 -125 -471 -125 -484 0 -5 34 -8 80 -5
223 10 491 -81 680 -232 81 -64 95 -68 74 -19 -32 78 -82 147 -160 221 -65 61
-105 90 -194 134 -61 32 -138 65 -171 74 -41 11 -59 21 -59 33 0 16 88 349 96
361 7 12 88 -11 167 -49 42 -21 77 -34 77 -30 0 17 -118 99 -175 122 -85 33
-125 41 -125 24z"/>
<path d="M2978 3597 c-70 -24 -157 -78 -199 -123 l-24 -26 55 30 c51 28 197
79 204 71 6 -8 96 -356 96 -371 0 -10 -21 -21 -62 -32 -89 -24 -232 -96 -310
-155 -104 -79 -191 -192 -229 -299 -8 -22 -7 -24 3 -11 7 9 17 16 21 16 5 1
43 27 85 58 100 75 251 148 377 182 83 22 122 26 232 27 73 1 133 5 133 10 0
4 -28 117 -62 251 l-61 242 -50 -13 c-27 -7 -51 -15 -54 -18 -13 -12 8 -36 31
-36 18 0 27 -7 31 -22 3 -13 21 -90 40 -171 19 -82 35 -155 35 -162 0 -9 -16
-16 -42 -19 -170 -20 -220 -29 -301 -56 -122 -41 -234 -109 -324 -197 -40 -39
-73 -69 -73 -66 0 16 79 110 139 165 131 121 296 201 502 242 l26 6 -32 117
c-17 65 -46 178 -64 251 -19 73 -38 132 -45 132 -6 0 -41 -11 -78 -23z"/>
<path d="M1671 2913 c-17 -65 -32 -136 -29 -139 2 -1 46 4 98 12 210 31 415 5
628 -80 92 -37 87 -27 -15 30 -145 82 -318 124 -508 124 l-113 0 6 45 c5 45 4
45 -26 45 -28 0 -32 -4 -41 -37z"/>
<path d="M3262 2905 l3 -45 -117 0 c-133 0 -275 -24 -380 -64 -85 -31 -210
-104 -203 -116 3 -6 0 -7 -8 -4 -7 2 -14 -1 -14 -9 0 -11 12 -11 71 1 45 10
136 15 251 16 153 1 197 -3 293 -23 62 -13 114 -22 116 -20 1 2 -2 27 -7 56
l-8 52 -47 8 c-26 4 -110 8 -187 7 -148 0 -277 -19 -369 -55 -57 -21 -68 -23
-46 -9 35 23 205 70 311 86 122 18 276 15 378 -7 29 -6 54 -9 56 -7 4 3 -3 39
-30 156 -4 17 -12 22 -36 22 -31 0 -31 -1 -27 -45z"/>
<path d="M1880 2763 c-155 -15 -142 -7 -155 -92 -7 -40 -6 -43 11 -37 39 16
213 45 304 51 99 8 276 -7 374 -29 31 -8 56 -12 56 -9 0 2 -29 17 -64 32 -140
63 -368 100 -526 84z"/>
<path d="M1704 2516 c-3 -8 -4 -25 -2 -38 l3 -23 795 0 795 0 0 35 0 35 -793
3 c-681 2 -793 0 -798 -12z"/>
<path d="M3370 2236 c0 -278 1 -286 20 -286 12 0 22 9 25 23 3 12 4 139 3 282
l-3 260 -22 3 -23 3 0 -285z"/>
<path d="M1586 2494 c-3 -9 -6 -134 -6 -278 0 -264 4 -292 36 -279 11 4 14 57
14 289 0 272 -1 284 -19 284 -10 0 -22 -7 -25 -16z"/>
<path d="M1870 2225 c0 -139 2 -165 15 -165 12 0 15 23 17 128 l3 127 64 -107
c35 -60 67 -108 71 -108 4 0 36 48 71 108 l64 107 3 -127 c2 -105 5 -128 17
-128 13 0 15 26 15 165 0 134 -3 165 -14 165 -7 0 -45 -54 -82 -120 -38 -66
-71 -120 -74 -120 -3 0 -36 54 -73 120 -38 66 -75 120 -83 120 -11 0 -14 -29
-14 -165z"/>
<path d="M2270 2382 c0 -4 27 -52 60 -105 56 -91 60 -102 60 -157 0 -53 2 -60
20 -60 18 0 20 7 20 58 0 53 5 66 60 156 63 103 68 116 47 116 -7 0 -37 -40
-66 -90 -29 -49 -56 -90 -60 -90 -3 0 -30 41 -59 90 -29 50 -59 90 -67 90 -8
0 -15 -4 -15 -8z"/>
<path d="M2643 2375 c-57 -25 -71 -89 -27 -130 14 -13 48 -29 77 -35 69 -16
97 -35 97 -65 0 -50 -95 -74 -162 -39 -20 10 -34 12 -40 6 -17 -17 40 -46 102
-50 95 -7 137 28 128 104 -3 32 -41 56 -116 75 -42 10 -82 39 -82 59 0 6 11
22 25 35 26 27 73 33 121 15 45 -17 55 6 11 25 -45 18 -92 19 -134 0z"/>
<path d="M2960 2367 c-50 -26 -90 -90 -90 -141 0 -42 38 -115 73 -140 41 -30
142 -34 186 -6 44 28 29 50 -17 26 -93 -48 -202 13 -202 113 0 110 108 176
199 120 25 -15 37 -17 45 -9 8 8 5 16 -14 30 -48 37 -119 39 -180 7z"/>
<path d="M1703 1974 c-3 -8 -1 -20 4 -25 5 -5 316 -8 799 -7 781 3 789 3 789
23 0 20 -8 20 -793 23 -713 2 -793 1 -799 -14z"/>
</g>
</svg>
